<svg width="836" height="173" viewBox="0 0 836 173" fill="none" xmlns="http://www.w3.org/2000/svg">
<path d="M200.514 95.8645H227.481C228.01 96.9223 228.539 98.2452 229.068 99.8324C229.702 101.42 230.02 103.165 230.02 105.07C230.02 108.456 229.226 110.889 227.64 112.371C226.159 113.853 224.203 114.593 221.771 114.593H201.624V166.493C200.567 166.81 199.086 167.075 197.182 167.286C195.279 167.604 193.163 167.763 190.837 167.763C186.078 167.763 182.641 167.022 180.526 165.541C178.41 163.953 177.353 160.938 177.353 156.494V89.0397C177.353 83.8553 178.199 79.358 179.891 75.5489C181.689 71.7397 184.121 68.6712 187.188 66.3434C190.256 63.9097 193.851 62.111 197.976 60.947C202.1 59.7831 206.542 59.2012 211.301 59.2012C218.81 59.2012 224.362 60.2064 227.957 62.2168C231.659 64.1214 233.51 67.2957 233.51 71.7397C233.51 73.7501 233.087 75.5489 232.24 77.136C231.5 78.6174 230.601 79.781 229.544 80.6278C227.535 79.9929 225.366 79.4636 223.04 79.0406C220.819 78.6174 218.281 78.4058 215.425 78.4058C210.561 78.4058 206.859 79.3051 204.321 81.1039C201.783 82.7966 200.514 85.7067 200.514 89.8333V95.8645ZM264.668 166.493C263.609 166.81 262.129 167.075 260.226 167.286C258.322 167.604 256.207 167.763 253.88 167.763C249.121 167.763 245.684 167.022 243.569 165.541C241.454 163.953 240.397 160.938 240.397 156.494V108.086C240.397 105.123 241.137 102.584 242.617 100.467C244.098 98.3507 246.16 96.4993 248.804 94.9122C252.294 92.7957 256.471 91.1562 261.336 89.992C266.306 88.7223 271.489 88.0874 276.882 88.0874C287.88 88.0874 293.38 91.791 293.38 99.1975C293.38 100.997 293.115 102.636 292.587 104.118C292.058 105.599 291.477 106.869 290.842 107.927C288.41 107.398 285.449 107.133 281.959 107.133C278.891 107.133 275.824 107.504 272.758 108.244C269.691 108.985 266.994 109.99 264.668 111.26V166.493ZM379.625 128.401C379.625 134.644 378.673 140.305 376.769 145.384C374.866 150.357 372.117 154.589 368.52 158.081C365.03 161.573 360.8 164.271 355.83 166.175C350.86 168.08 345.307 169.032 339.173 169.032C333.04 169.032 327.434 168.133 322.358 166.334C317.388 164.43 313.105 161.731 309.509 158.24C306.019 154.748 303.322 150.516 301.418 145.542C299.515 140.464 298.563 134.75 298.563 128.401C298.563 122.264 299.515 116.709 301.418 111.736C303.428 106.657 306.177 102.372 309.667 98.8801C313.263 95.3883 317.547 92.6902 322.517 90.7856C327.593 88.881 333.145 87.9287 339.173 87.9287C345.201 87.9287 350.701 88.881 355.671 90.7856C360.642 92.6902 364.872 95.4415 368.362 99.0388C371.958 102.531 374.707 106.763 376.611 111.736C378.621 116.709 379.625 122.264 379.625 128.401ZM339.173 106.975C334.203 106.975 330.343 108.826 327.593 112.53C324.844 116.233 323.468 121.523 323.468 128.401C323.468 135.49 324.791 140.887 327.434 144.59C330.184 148.187 334.097 149.986 339.173 149.986C344.249 149.986 348.11 148.135 350.753 144.431C353.503 140.728 354.878 135.385 354.878 128.401C354.878 121.63 353.503 116.392 350.753 112.688C348.004 108.879 344.144 106.975 339.173 106.975ZM408.35 167.763C403.591 167.763 400.154 167.022 398.039 165.541C396.029 163.953 395.025 160.938 395.025 156.494V63.3278C396.082 63.0103 397.563 62.6929 399.467 62.3755C401.476 62.0581 403.643 61.8993 405.971 61.8993C410.623 61.8993 414.008 62.6929 416.123 64.2801C418.238 65.8672 419.296 68.8828 419.296 73.3269V166.493C418.132 166.81 416.599 167.075 414.695 167.286C412.792 167.604 410.676 167.763 408.35 167.763ZM469.796 151.256C472.122 151.256 474.396 151.044 476.617 150.621C478.944 150.092 480.689 149.457 481.852 148.717V134.115L468.844 135.226C465.46 135.543 462.71 136.337 460.595 137.607C458.586 138.771 457.581 140.569 457.581 143.003C457.581 145.542 458.533 147.553 460.437 149.034C462.34 150.516 465.46 151.256 469.796 151.256ZM468.844 87.9287C474.343 87.9287 479.314 88.5104 483.756 89.6746C488.303 90.7324 492.164 92.4259 495.336 94.7535C498.509 97.081 500.941 100.044 502.633 103.642C504.431 107.239 505.33 111.472 505.33 116.339V152.208C505.33 154.96 504.589 157.182 503.109 158.875C501.734 160.462 500.042 161.837 498.033 163.001C494.754 165.011 490.736 166.546 485.977 167.604C481.218 168.662 475.824 169.191 469.796 169.191C458.903 169.191 450.231 167.128 443.78 163.001C437.329 158.769 434.104 152.367 434.104 143.797C434.104 136.496 436.271 130.941 440.608 127.131C444.943 123.322 451.606 120.942 460.595 119.989L481.694 117.767V116.021C481.694 112.635 480.318 110.149 477.569 108.562C474.819 106.975 470.853 106.181 465.672 106.181C461.653 106.181 457.687 106.657 453.774 107.609C449.967 108.562 446.529 109.673 443.463 110.942C442.194 110.096 441.083 108.826 440.132 107.133C439.285 105.334 438.863 103.43 438.863 101.42C438.863 96.7636 441.294 93.4306 446.16 91.4204C449.226 90.2563 452.769 89.4103 456.788 88.881C460.913 88.2461 464.931 87.9287 468.844 87.9287ZM572.298 117.926C572.298 114.222 571.188 111.472 568.967 109.673C566.746 107.874 563.784 106.975 560.083 106.975C557.545 106.975 555.218 107.292 553.103 107.927C550.988 108.562 549.031 109.355 547.234 110.308V166.493C546.176 166.81 544.696 167.075 542.792 167.286C540.889 167.604 538.773 167.763 536.447 167.763C531.688 167.763 528.25 167.022 526.136 165.541C524.02 163.953 522.963 160.938 522.963 156.494V107.451C522.963 104.699 523.544 102.477 524.708 100.785C525.871 99.0919 527.51 97.5048 529.626 96.0232C533.009 93.5893 537.346 91.6323 542.634 90.1507C548.027 88.6691 553.949 87.9287 560.401 87.9287C571.928 87.9287 580.811 90.4681 587.051 95.547C593.396 100.626 596.569 107.874 596.569 117.291V166.493C595.406 166.81 593.872 167.075 591.969 167.286C590.065 167.604 587.95 167.763 585.623 167.763C580.864 167.763 577.427 167.022 575.312 165.541C573.302 163.953 572.298 160.938 572.298 156.494V117.926ZM656.239 107.133C650.528 107.133 645.663 108.985 641.645 112.688C637.626 116.286 635.617 121.63 635.617 128.719C635.617 135.808 637.52 141.098 641.328 144.59C645.24 148.082 650.158 149.828 656.081 149.828C659.464 149.828 662.426 149.405 664.964 148.558C667.608 147.606 669.829 146.653 671.627 145.701C673.424 147.076 674.799 148.558 675.751 150.145C676.809 151.627 677.338 153.478 677.338 155.7C677.338 159.721 675.222 162.948 670.992 165.382C666.761 167.816 660.892 169.032 653.384 169.032C647.038 169.032 641.221 168.186 635.934 166.493C630.751 164.8 626.31 162.261 622.609 158.875C618.907 155.488 616.052 151.309 614.043 146.336C612.033 141.257 611.029 135.385 611.029 128.719C611.029 121.841 612.139 115.863 614.36 110.784C616.581 105.705 619.595 101.473 623.402 98.0865C627.209 94.7003 631.651 92.1608 636.727 90.4681C641.804 88.7754 647.144 87.9287 652.749 87.9287C660.046 87.9287 665.757 89.2516 669.882 91.8966C674.112 94.5416 676.227 97.8746 676.227 101.896C676.227 103.8 675.751 105.546 674.799 107.133C673.953 108.72 672.896 110.096 671.627 111.26C669.723 110.202 667.449 109.25 664.805 108.403C662.267 107.556 659.412 107.133 656.239 107.133ZM710.275 138.559C711.756 143.003 714.346 146.177 718.048 148.082C721.749 149.881 726.033 150.78 730.897 150.78C735.339 150.78 739.516 150.198 743.429 149.034C747.342 147.764 750.514 146.389 752.947 144.908C754.533 145.965 755.856 147.341 756.913 149.034C757.97 150.727 758.499 152.579 758.499 154.589C758.499 157.023 757.759 159.139 756.279 160.938C754.798 162.737 752.735 164.271 750.092 165.541C747.554 166.705 744.486 167.551 740.891 168.08C737.401 168.715 733.541 169.032 729.311 169.032C723.071 169.032 717.308 168.186 712.02 166.493C706.732 164.694 702.184 162.102 698.377 158.716C694.57 155.224 691.556 150.886 689.335 145.701C687.22 140.517 686.162 134.432 686.162 127.449C686.162 120.677 687.22 114.805 689.335 109.831C691.556 104.858 694.464 100.731 698.06 97.4516C701.762 94.1718 705.938 91.791 710.592 90.3094C715.351 88.7223 720.215 87.9287 725.186 87.9287C730.58 87.9287 735.497 88.7754 739.939 90.4681C744.486 92.0553 748.347 94.3305 751.519 97.2929C754.798 100.255 757.336 103.8 759.134 107.927C760.932 112.053 761.831 116.551 761.831 121.418C761.831 124.804 760.932 127.343 759.134 129.036C757.336 130.729 754.798 131.84 751.519 132.369L710.275 138.559ZM725.345 105.864C720.798 105.864 716.99 107.292 713.923 110.149C710.962 112.9 709.217 116.92 708.688 122.211L738.987 117.291C738.776 114.54 737.56 111.948 735.339 109.514C733.118 107.08 729.787 105.864 725.345 105.864ZM800.054 166.493C798.999 166.81 797.516 167.075 795.612 167.286C793.709 167.604 791.596 167.763 789.27 167.763C784.511 167.763 781.073 167.022 778.958 165.541C776.843 163.953 775.786 160.938 775.786 156.494V108.086C775.786 105.123 776.526 102.584 778.006 100.467C779.487 98.3507 781.549 96.4993 784.193 94.9122C787.683 92.7957 791.86 91.1562 796.723 89.992C801.696 88.7223 806.875 88.0874 812.269 88.0874C823.27 88.0874 828.767 91.791 828.767 99.1975C828.767 100.997 828.505 102.636 827.974 104.118C827.45 105.599 826.863 106.869 826.229 107.927C823.802 107.398 820.835 107.133 817.345 107.133C814.284 107.133 811.214 107.504 808.145 108.244C805.083 108.985 802.386 109.99 800.054 111.26V166.493Z" fill="url(#paint0_linear_616_608)"/>
<path fill-rule="evenodd" clip-rule="evenodd" d="M73.7647 34.918L94.5624 73.2696H81.2768V112.046C80.9255 112.428 80.578 112.814 80.2346 113.204C77.8984 115.849 75.737 118.648 73.7647 121.584C71.7925 118.648 69.6311 115.849 67.2948 113.204C66.9513 112.814 66.6039 112.428 66.2525 112.046V73.2696H52.9666L73.7647 34.918ZM115.239 113.14C105.084 117.745 96.4557 125.251 90.3998 134.749C84.3448 144.247 81.1214 155.33 81.1198 166.656H66.0952C66.1021 152.272 70.2298 138.205 77.9717 126.177C85.7138 114.15 96.7333 104.687 109.678 98.9494L104.859 86.6704L147.529 92.1127L120.297 126.024L115.239 113.14ZM32.2866 113.14C39.6703 116.495 46.2794 121.393 51.6845 127.519C56.4677 132.931 60.216 139.206 62.7364 146.021C64.4521 139.477 66.9819 133.182 70.2643 127.29C68.0689 123.751 65.5835 120.408 62.8347 117.296C55.8908 109.431 47.3714 103.176 37.8519 98.9534L42.6699 86.6743L0 92.1127L27.2326 126.024L32.2866 113.14Z" fill="url(#paint1_linear_616_608)"/>
<defs>
<linearGradient id="paint0_linear_616_608" x1="856.591" y1="0.00033151" x2="212.901" y2="219.327" gradientUnits="userSpaceOnUse">
<stop offset="0.323882" stop-color="#8B31F5"/>
<stop offset="0.622369" stop-color="#2660F8"/>
<stop offset="1" stop-color="#47D600"/>
</linearGradient>
<linearGradient id="paint1_linear_616_608" x1="73.7647" y1="173.885" x2="73.7647" y2="18.5915" gradientUnits="userSpaceOnUse">
<stop stop-color="#44D500"/>
<stop offset="0.05" stop-color="#43D403"/>
<stop offset="0.09" stop-color="#40D00D"/>
<stop offset="0.13" stop-color="#3CC91F"/>
<stop offset="0.17" stop-color="#35BF37"/>
<stop offset="0.2" stop-color="#2CB256"/>
<stop offset="0.23" stop-color="#22A37D"/>
<stop offset="0.27" stop-color="#1691AA"/>
<stop offset="0.3" stop-color="#087CDD"/>
<stop offset="0.31" stop-color="#0071F9"/>
<stop offset="0.34" stop-color="#1667F8"/>
<stop offset="0.38" stop-color="#3558F7"/>
<stop offset="0.42" stop-color="#514CF7"/>
<stop offset="0.47" stop-color="#6741F6"/>
<stop offset="0.53" stop-color="#783AF6"/>
<stop offset="0.61" stop-color="#8334F5"/>
<stop offset="0.71" stop-color="#8A31F5"/>
<stop offset="1" stop-color="#8C30F5"/>
</linearGradient>
</defs>
</svg>
